<?xml version="1.0" encoding="UTF-8"?>
<svg xmlns="http://www.w3.org/2000/svg" xmlns:xlink="http://www.w3.org/1999/xlink" width="36pt" height="36pt" viewBox="0 0 36 36" version="1.1">
<g id="surface1">
<path style=" stroke:none;fill-rule:nonzero;fill:rgb(100%,23.137255%,23.137255%);fill-opacity:1;" d="M 18 0 C 27.941406 0 36 8.058594 36 18 C 36 27.941406 27.941406 36 18 36 C 8.058594 36 0 27.941406 0 18 C 0 8.058594 8.058594 0 18 0 Z M 18 0 "/>
<path style=" stroke:none;fill-rule:nonzero;fill:rgb(14.117647%,81.176471%,37.254902%);fill-opacity:1;" d="M 17.496094 21.277344 L 14.835938 19.253906 L 14.167969 18.746094 L 10.203125 15.730469 L 14.140625 15.730469 L 14.59375 14.492188 L 8.367188 14.492188 C 8.019531 14.492188 7.742188 14.769531 7.742188 15.113281 C 7.742188 15.328125 7.851562 15.515625 8.019531 15.628906 L 16.425781 22.019531 Z M 17.496094 21.277344 "/>
<path style=" stroke:none;fill-rule:nonzero;fill:rgb(14.117647%,81.176471%,37.254902%);fill-opacity:1;" d="M 14.023438 17.855469 L 15.058594 18.644531 L 15.375 17.789062 L 16.128906 15.730469 L 16.589844 14.492188 L 18.140625 10.257812 L 19.46875 13.875 L 20.792969 13.875 L 18.726562 8.246094 C 18.664062 8.078125 18.535156 7.9375 18.351562 7.871094 C 18.027344 7.757812 17.671875 7.921875 17.554688 8.242188 L 15.257812 14.492188 L 14.863281 15.5625 L 14.203125 17.367188 Z M 14.023438 17.855469 "/>
<path style=" stroke:none;fill-rule:nonzero;fill:rgb(14.117647%,81.176471%,37.254902%);fill-opacity:1;" d="M 19.121094 22.410156 L 21.316406 20.726562 L 20.871094 19.507812 L 18.03125 21.683594 L 16.949219 22.417969 L 12.660156 25.179688 L 14.167969 21.074219 L 13.128906 20.289062 L 10.851562 26.492188 C 10.785156 26.667969 10.804688 26.867188 10.914062 27.039062 C 11.101562 27.324219 11.488281 27.40625 11.777344 27.21875 L 18.039062 23.195312 L 18.257812 23.039062 C 18.320312 23.015625 18.382812 22.980469 18.433594 22.933594 L 19.082031 22.4375 Z M 19.121094 22.410156 "/>
<path style=" stroke:none;fill-rule:nonzero;fill:rgb(14.117647%,81.176471%,37.254902%);fill-opacity:1;" d="M 23.882812 14.492188 L 17.253906 14.492188 L 16.800781 15.730469 L 25.792969 15.730469 L 22.929688 17.929688 L 23.386719 19.140625 L 28 15.601562 C 28.269531 15.390625 28.320312 15.003906 28.109375 14.734375 C 27.988281 14.578125 27.804688 14.496094 27.617188 14.496094 Z M 23.882812 14.492188 "/>
<path style=" stroke:none;fill-rule:nonzero;fill:rgb(14.117647%,81.176471%,37.254902%);fill-opacity:1;" d="M 22.871094 19.53125 L 22.429688 18.3125 L 22.078125 17.367188 L 21.703125 16.347656 L 20.375 16.347656 L 20.90625 17.785156 L 21.390625 19.109375 L 21.832031 20.328125 L 23.636719 25.21875 L 19.6875 22.761719 L 18.605469 23.546875 L 24.5 27.21875 C 24.660156 27.320312 24.863281 27.351562 25.054688 27.28125 C 25.378906 27.164062 25.546875 26.8125 25.429688 26.492188 Z M 22.871094 19.53125 "/>
</g>
</svg>
