<svg width='42px' height='42px' viewBox="0 0 42 42" version="1.1" xmlns="http://www.w3.org/2000/svg">
    <defs></defs>
    <g id="Symbols" stroke="none" strokeWidth="1" fill="none" fillRule="evenodd">
      <g id="DrapeauTunisie">
        <g>
          <rect id="Profil" fill='#FF2C2C' x="0" y="0" width="38" height="38" rx="19"></rect>
          <path d="M19.4501955,7.23809524 C26.2090356,7.23809524 31.6664013,12.7005929 31.6664013,19.4522483 C31.6664013,26.210062 26.2090356,31.6664013 19.4501955,31.6664013 C12.6913553,31.6664013 7.23809524,26.210062 7.23809524,19.4522483 C7.23809524,12.6995665 12.6913553,7.23809524 19.4501955,7.23809524 Z M25.8943415,21.8166619 L23.3427126,19.0977299 L25.2733699,15.9066541 L21.8975422,17.494494 L19.46087,14.6718956 L19.9278817,18.3720655 L16.4894437,19.8182623 L20.1526632,20.5172403 L20.465715,24.2338326 L22.2629404,20.9657768 L25.8943415,21.8166619 Z M19.3595644,9.87080973 C14.067449,9.87080973 9.77812587,14.1611593 9.77812587,19.4522483 C9.77812587,24.7443636 14.067449,29.0347132 19.3595644,29.0347132 C21.3333305,29.0306076 23.2578294,28.4168207 24.8703028,27.2775174 C23.7535803,27.7896907 22.5403762,28.0565545 21.3117761,28.0596337 C16.5585204,28.0586073 12.7074698,24.2055039 12.7074698,19.4522483 C12.7074698,14.700019 16.5585204,10.8469156 21.3117761,10.8458892 C22.5485874,10.8489684 23.7689763,11.1189114 24.8918572,11.6362167 C23.2742517,10.4897286 21.3415417,9.87286253 19.3595644,9.87080973 Z" id="Combined-Shape" fill="#FFFFFF"></path>
        </g>
      </g>
    </g>
  </svg>